<mxfile host="app.diagrams.net" modified="2021-03-04T08:13:21.514Z" agent="5.0 (Windows NT 10.0; Win64; x64) AppleWebKit/537.36 (KHTML, like Gecko) Chrome/88.0.4324.190 Safari/537.36" etag="KVKSZtc63av1SiH0FXWK" version="14.4.3" type="github">
  <diagram id="dufI3Iz0gT4cZmuLtmfw" name="Page-1">
    <mxGraphModel dx="1695" dy="450" grid="1" gridSize="10" guides="1" tooltips="1" connect="1" arrows="1" fold="1" page="1" pageScale="1" pageWidth="827" pageHeight="1169" math="0" shadow="0">
      <root>
        <mxCell id="0" />
        <mxCell id="1" parent="0" />
        <mxCell id="Q1guIjFVi5lLfwft4Tel-4" style="edgeStyle=orthogonalEdgeStyle;rounded=0;orthogonalLoop=1;jettySize=auto;html=1;" parent="1" edge="1">
          <mxGeometry relative="1" as="geometry">
            <mxPoint x="-670" y="190" as="sourcePoint" />
            <mxPoint x="-620" y="190" as="targetPoint" />
          </mxGeometry>
        </mxCell>
        <mxCell id="Q1guIjFVi5lLfwft4Tel-9" style="edgeStyle=orthogonalEdgeStyle;rounded=0;orthogonalLoop=1;jettySize=auto;html=1;exitX=1;exitY=0.5;exitDx=0;exitDy=0;entryX=0;entryY=0.5;entryDx=0;entryDy=0;" parent="1" source="Q1guIjFVi5lLfwft4Tel-6" target="Q1guIjFVi5lLfwft4Tel-7" edge="1">
          <mxGeometry relative="1" as="geometry" />
        </mxCell>
        <mxCell id="Q1guIjFVi5lLfwft4Tel-6" value="Email&lt;br&gt;Password" style="html=1;" parent="1" vertex="1">
          <mxGeometry x="-620" y="165" width="110" height="50" as="geometry" />
        </mxCell>
        <mxCell id="Q1guIjFVi5lLfwft4Tel-15" style="edgeStyle=orthogonalEdgeStyle;rounded=0;orthogonalLoop=1;jettySize=auto;html=1;exitX=1;exitY=0.5;exitDx=0;exitDy=0;entryX=0;entryY=0.5;entryDx=0;entryDy=0;" parent="1" source="Q1guIjFVi5lLfwft4Tel-7" target="Q1guIjFVi5lLfwft4Tel-11" edge="1">
          <mxGeometry relative="1" as="geometry" />
        </mxCell>
        <mxCell id="Q1guIjFVi5lLfwft4Tel-7" value="Email &amp;amp; Password match" style="rounded=1;whiteSpace=wrap;html=1;arcSize=40;fontColor=#000000;fillColor=#ffffc0;strokeColor=#ff0000;" parent="1" vertex="1">
          <mxGeometry x="-490" y="170" width="120" height="40" as="geometry" />
        </mxCell>
        <mxCell id="Q1guIjFVi5lLfwft4Tel-8" value="" style="edgeStyle=orthogonalEdgeStyle;html=1;verticalAlign=bottom;endArrow=open;endSize=8;strokeColor=#ff0000;" parent="1" source="Q1guIjFVi5lLfwft4Tel-7" edge="1">
          <mxGeometry relative="1" as="geometry">
            <mxPoint x="-440" y="340" as="targetPoint" />
          </mxGeometry>
        </mxCell>
        <mxCell id="Q1guIjFVi5lLfwft4Tel-10" value="Yes" style="text;html=1;resizable=0;autosize=1;align=center;verticalAlign=middle;points=[];fillColor=none;strokeColor=none;rounded=0;" parent="1" vertex="1">
          <mxGeometry x="-470" y="235" width="40" height="20" as="geometry" />
        </mxCell>
        <mxCell id="Q1guIjFVi5lLfwft4Tel-11" value="Reset password" style="rounded=1;whiteSpace=wrap;html=1;arcSize=40;fontColor=#000000;fillColor=#ffffc0;strokeColor=#ff0000;" parent="1" vertex="1">
          <mxGeometry x="-290" y="195" width="120" height="40" as="geometry" />
        </mxCell>
        <mxCell id="Q1guIjFVi5lLfwft4Tel-13" value="Create account" style="rounded=1;whiteSpace=wrap;html=1;arcSize=40;fontColor=#000000;fillColor=#ffffc0;strokeColor=#ff0000;" parent="1" vertex="1">
          <mxGeometry x="-290" y="140" width="120" height="40" as="geometry" />
        </mxCell>
        <mxCell id="Q1guIjFVi5lLfwft4Tel-16" value="No" style="text;html=1;resizable=0;autosize=1;align=center;verticalAlign=middle;points=[];fillColor=none;strokeColor=none;rounded=0;" parent="1" vertex="1">
          <mxGeometry x="-370" y="190" width="30" height="20" as="geometry" />
        </mxCell>
        <mxCell id="Q1guIjFVi5lLfwft4Tel-21" style="edgeStyle=orthogonalEdgeStyle;rounded=0;orthogonalLoop=1;jettySize=auto;html=1;" parent="1" source="Q1guIjFVi5lLfwft4Tel-18" target="Q1guIjFVi5lLfwft4Tel-13" edge="1">
          <mxGeometry relative="1" as="geometry" />
        </mxCell>
        <mxCell id="Q1guIjFVi5lLfwft4Tel-28" style="edgeStyle=orthogonalEdgeStyle;rounded=0;orthogonalLoop=1;jettySize=auto;html=1;entryX=1;entryY=0.25;entryDx=0;entryDy=0;" parent="1" source="Q1guIjFVi5lLfwft4Tel-18" target="Q1guIjFVi5lLfwft4Tel-6" edge="1">
          <mxGeometry relative="1" as="geometry">
            <Array as="points">
              <mxPoint x="-500" y="140" />
              <mxPoint x="-500" y="177" />
            </Array>
          </mxGeometry>
        </mxCell>
        <mxCell id="Q1guIjFVi5lLfwft4Tel-18" value="" style="html=1;points=[];perimeter=orthogonalPerimeter;" parent="1" vertex="1">
          <mxGeometry x="-340" y="130" width="10" height="105" as="geometry" />
        </mxCell>
        <mxCell id="Q1guIjFVi5lLfwft4Tel-24" value="" style="ellipse;html=1;shape=endState;fillColor=#000000;strokeColor=#ff0000;" parent="1" vertex="1">
          <mxGeometry x="-460" y="340" width="30" height="30" as="geometry" />
        </mxCell>
        <mxCell id="Q1guIjFVi5lLfwft4Tel-25" value="" style="ellipse;html=1;shape=startState;fillColor=#000000;strokeColor=#ff0000;" parent="1" vertex="1">
          <mxGeometry x="-700" y="175" width="30" height="30" as="geometry" />
        </mxCell>
        <mxCell id="Q1guIjFVi5lLfwft4Tel-29" value="Try again" style="text;html=1;resizable=0;autosize=1;align=center;verticalAlign=middle;points=[];fillColor=none;strokeColor=none;rounded=0;" parent="1" vertex="1">
          <mxGeometry x="-460" y="120" width="70" height="20" as="geometry" />
        </mxCell>
        <mxCell id="Q1guIjFVi5lLfwft4Tel-30" value="User successfully logs in" style="rounded=1;whiteSpace=wrap;html=1;arcSize=40;fontColor=#000000;fillColor=#ffffc0;strokeColor=#ff0000;" parent="1" vertex="1">
          <mxGeometry x="-485" y="255" width="120" height="40" as="geometry" />
        </mxCell>
      </root>
    </mxGraphModel>
  </diagram>
</mxfile>
